P2
# haus.pgm
5 8
 15
12 12 8 12 12 12 8 8 8 12 8 8 8 8 8 8 8 8 8 8 8 15 8 15 8 8 8 8 8 8 8 15 8 15 8 8 8 8 8 8 